<svg width="32" height="18" viewBox="0 0 32 18" fill="none" xmlns="http://www.w3.org/2000/svg">
<g clip-path="url(#clip0_0_1346)">
<path d="M0 12H32V18H0V12Z" fill="#1EB53A"/>
<path d="M0 0.00170898H32V6.00171H0V0.00170898Z" fill="#0099B5"/>
<path d="M0 5.76001H32V12.24H0V5.76001Z" fill="#CE1126"/>
<path d="M0 6.12H32V11.88H0V6.12Z" fill="white"/>
<path d="M6.71997 5.03997C8.31055 5.03997 9.59997 4.07291 9.59997 2.87997C9.59997 1.68704 8.31055 0.719971 6.71997 0.719971C5.12939 0.719971 3.83997 1.68704 3.83997 2.87997C3.83997 4.07291 5.12939 5.03997 6.71997 5.03997Z" fill="white"/>
<path d="M7.68005 5.03997C9.27063 5.03997 10.56 4.07291 10.56 2.87997C10.56 1.68704 9.27063 0.719971 7.68005 0.719971C6.08947 0.719971 4.80005 1.68704 4.80005 2.87997C4.80005 4.07291 6.08947 5.03997 7.68005 5.03997Z" fill="#0099B5"/>
<path d="M13.0551 4.17676L12.8727 4.58716L13.1511 4.65916" fill="white"/>
<path d="M13.055 4.17676L13.2374 4.58716L12.959 4.65916" fill="white"/>
<path d="M13.5865 4.46304L13.019 4.4877L13.0684 4.69274" fill="white"/>
<path d="M13.5718 4.46885L13.1793 4.7294L12.9616 4.5744" fill="white"/>
<path d="M12.5384 4.46885L12.9309 4.7294L13.1487 4.5744" fill="white"/>
<path d="M12.5236 4.46304L13.0911 4.4877L13.0417 4.69274" fill="white"/>
<path d="M13.4032 4.96043L13.2072 4.54673L12.9379 4.60353" fill="white"/>
<path d="M13.3986 4.96266L12.9266 4.701L13.0787 4.5257" fill="white"/>
<path d="M12.7225 4.95733L13.1883 4.70792L12.9993 4.5257" fill="white"/>
<path d="M12.7281 4.95783L12.8756 4.54569L13.1723 4.61184" fill="white"/>
<path d="M13.0551 2.44873L12.8727 2.85913L13.1511 2.93113" fill="white"/>
<path d="M13.055 2.44873L13.2374 2.85913L12.959 2.93113" fill="white"/>
<path d="M13.5865 2.73501L13.019 2.75968L13.0684 2.96472" fill="white"/>
<path d="M13.5718 2.74082L13.1793 3.00138L12.9616 2.84637" fill="white"/>
<path d="M12.5384 2.74082L12.9309 3.00138L13.1487 2.84637" fill="white"/>
<path d="M12.5236 2.73501L13.0911 2.75968L13.0417 2.96472" fill="white"/>
<path d="M13.4032 3.2324L13.2072 2.8187L12.9379 2.8755" fill="white"/>
<path d="M13.3986 3.23463L12.9266 2.97297L13.0787 2.79767" fill="white"/>
<path d="M12.7225 3.2293L13.1883 2.97989L12.9993 2.79767" fill="white"/>
<path d="M12.7281 3.2298L12.8756 2.81766L13.1723 2.88382" fill="white"/>
<path d="M13.0551 0.720703L12.8727 1.1311L13.1511 1.2031" fill="white"/>
<path d="M13.055 0.720703L13.2374 1.1311L12.959 1.2031" fill="white"/>
<path d="M13.5865 1.00698L13.019 1.03165L13.0684 1.23669" fill="white"/>
<path d="M13.5718 1.01279L13.1793 1.27335L12.9616 1.11835" fill="white"/>
<path d="M12.5384 1.01279L12.9309 1.27335L13.1487 1.11835" fill="white"/>
<path d="M12.5236 1.00698L13.0911 1.03165L13.0417 1.23669" fill="white"/>
<path d="M13.4032 1.50437L13.2072 1.09067L12.9379 1.14747" fill="white"/>
<path d="M13.3986 1.5066L12.9266 1.24494L13.0787 1.06964" fill="white"/>
<path d="M12.7225 1.50128L13.1883 1.25186L12.9993 1.06964" fill="white"/>
<path d="M12.7281 1.50178L12.8756 1.08963L13.1723 1.15579" fill="white"/>
<path d="M15.359 4.17676L15.1766 4.58716L15.455 4.65916" fill="white"/>
<path d="M15.359 4.17676L15.5414 4.58716L15.263 4.65916" fill="white"/>
<path d="M15.8905 4.46304L15.323 4.4877L15.3723 4.69274" fill="white"/>
<path d="M15.8758 4.46885L15.4833 4.7294L15.2655 4.5744" fill="white"/>
<path d="M14.8424 4.46885L15.2349 4.7294L15.4526 4.5744" fill="white"/>
<path d="M14.8275 4.46304L15.395 4.4877L15.3457 4.69274" fill="white"/>
<path d="M15.7072 4.96043L15.5111 4.54673L15.2419 4.60353" fill="white"/>
<path d="M15.7026 4.96266L15.2305 4.701L15.3826 4.5257" fill="white"/>
<path d="M15.0265 4.95733L15.4922 4.70792L15.3032 4.5257" fill="white"/>
<path d="M15.032 4.95783L15.1796 4.54569L15.4762 4.61184" fill="white"/>
<path d="M15.359 2.44873L15.1766 2.85913L15.455 2.93113" fill="white"/>
<path d="M15.359 2.44873L15.5414 2.85913L15.263 2.93113" fill="white"/>
<path d="M15.8905 2.73501L15.323 2.75968L15.3723 2.96472" fill="white"/>
<path d="M15.8758 2.74082L15.4833 3.00138L15.2655 2.84637" fill="white"/>
<path d="M14.8424 2.74082L15.2349 3.00138L15.4526 2.84637" fill="white"/>
<path d="M14.8275 2.73501L15.395 2.75968L15.3457 2.96472" fill="white"/>
<path d="M15.7072 3.2324L15.5111 2.8187L15.2419 2.8755" fill="white"/>
<path d="M15.7026 3.23463L15.2305 2.97297L15.3826 2.79767" fill="white"/>
<path d="M15.0265 3.2293L15.4922 2.97989L15.3032 2.79767" fill="white"/>
<path d="M15.032 3.2298L15.1796 2.81766L15.4762 2.88382" fill="white"/>
<path d="M15.359 0.720703L15.1766 1.1311L15.455 1.2031" fill="white"/>
<path d="M15.359 0.720703L15.5414 1.1311L15.263 1.2031" fill="white"/>
<path d="M15.8905 1.00698L15.323 1.03165L15.3723 1.23669" fill="white"/>
<path d="M15.8758 1.01279L15.4833 1.27335L15.2655 1.11835" fill="white"/>
<path d="M14.8424 1.01279L15.2349 1.27335L15.4526 1.11835" fill="white"/>
<path d="M14.8275 1.00698L15.395 1.03165L15.3457 1.23669" fill="white"/>
<path d="M15.7072 1.50437L15.5111 1.09067L15.2419 1.14747" fill="white"/>
<path d="M15.7026 1.5066L15.2305 1.24494L15.3826 1.06964" fill="white"/>
<path d="M15.0265 1.50128L15.4922 1.25186L15.3032 1.06964" fill="white"/>
<path d="M15.032 1.50178L15.1796 1.08963L15.4762 1.15579" fill="white"/>
<path d="M17.663 4.17676L17.4806 4.58716L17.759 4.65916" fill="white"/>
<path d="M17.6629 4.17676L17.8453 4.58716L17.5669 4.65916" fill="white"/>
<path d="M18.1944 4.46304L17.6269 4.4877L17.6763 4.69274" fill="white"/>
<path d="M18.1797 4.46885L17.7872 4.7294L17.5695 4.5744" fill="white"/>
<path d="M17.1463 4.46885L17.5388 4.7294L17.7566 4.5744" fill="white"/>
<path d="M17.1315 4.46304L17.699 4.4877L17.6497 4.69274" fill="white"/>
<path d="M18.0111 4.96043L17.8151 4.54673L17.5458 4.60353" fill="white"/>
<path d="M18.0066 4.96266L17.5345 4.701L17.6866 4.5257" fill="white"/>
<path d="M17.3304 4.95733L17.7962 4.70792L17.6072 4.5257" fill="white"/>
<path d="M17.336 4.95783L17.4836 4.54569L17.7802 4.61184" fill="white"/>
<path d="M17.663 2.44873L17.4806 2.85913L17.759 2.93113" fill="white"/>
<path d="M17.6629 2.44873L17.8453 2.85913L17.5669 2.93113" fill="white"/>
<path d="M18.1944 2.73501L17.6269 2.75968L17.6763 2.96472" fill="white"/>
<path d="M18.1797 2.74082L17.7872 3.00138L17.5695 2.84637" fill="white"/>
<path d="M17.1463 2.74082L17.5388 3.00138L17.7566 2.84637" fill="white"/>
<path d="M17.1315 2.73501L17.699 2.75968L17.6497 2.96472" fill="white"/>
<path d="M18.0111 3.2324L17.8151 2.8187L17.5458 2.8755" fill="white"/>
<path d="M18.0066 3.23463L17.5345 2.97297L17.6866 2.79767" fill="white"/>
<path d="M17.3304 3.2293L17.7962 2.97989L17.6072 2.79767" fill="white"/>
<path d="M17.336 3.2298L17.4836 2.81766L17.7802 2.88382" fill="white"/>
<path d="M17.663 0.720703L17.4806 1.1311L17.759 1.2031" fill="white"/>
<path d="M17.6629 0.720703L17.8453 1.1311L17.5669 1.2031" fill="white"/>
<path d="M18.1944 1.00698L17.6269 1.03165L17.6763 1.23669" fill="white"/>
<path d="M18.1797 1.01279L17.7872 1.27335L17.5695 1.11835" fill="white"/>
<path d="M17.1463 1.01279L17.5388 1.27335L17.7566 1.11835" fill="white"/>
<path d="M17.1315 1.00698L17.699 1.03165L17.6497 1.23669" fill="white"/>
<path d="M18.0111 1.50437L17.8151 1.09067L17.5458 1.14747" fill="white"/>
<path d="M18.0066 1.5066L17.5345 1.24494L17.6866 1.06964" fill="white"/>
<path d="M17.3304 1.50128L17.7962 1.25186L17.6072 1.06964" fill="white"/>
<path d="M17.336 1.50178L17.4836 1.08963L17.7802 1.15579" fill="white"/>
<path d="M8.44705 4.17676L8.26465 4.58716L8.54305 4.65916" fill="white"/>
<path d="M8.44699 4.17676L8.62939 4.58716L8.35099 4.65916" fill="white"/>
<path d="M8.97849 4.46304L8.411 4.4877L8.46033 4.69274" fill="white"/>
<path d="M8.96377 4.46885L8.57128 4.7294L8.35352 4.5744" fill="white"/>
<path d="M7.93039 4.46885L8.32289 4.7294L8.54065 4.5744" fill="white"/>
<path d="M7.91556 4.46304L8.48305 4.4877L8.43371 4.69274" fill="white"/>
<path d="M8.79519 4.96043L8.59916 4.54673L8.32986 4.60353" fill="white"/>
<path d="M8.79061 4.96266L8.31856 4.701L8.47063 4.5257" fill="white"/>
<path d="M8.11448 4.95733L8.58024 4.70792L8.39123 4.5257" fill="white"/>
<path d="M8.12002 4.95783L8.26762 4.54569L8.56423 4.61184" fill="white"/>
<path d="M10.751 4.17676L10.5686 4.58716L10.847 4.65916" fill="white"/>
<path d="M10.7509 4.17676L10.9333 4.58716L10.6549 4.65916" fill="white"/>
<path d="M11.2824 4.46304L10.715 4.4877L10.7643 4.69274" fill="white"/>
<path d="M11.2677 4.46885L10.8752 4.7294L10.6575 4.5744" fill="white"/>
<path d="M10.2343 4.46885L10.6268 4.7294L10.8446 4.5744" fill="white"/>
<path d="M10.2195 4.46304L10.787 4.4877L10.7377 4.69274" fill="white"/>
<path d="M11.0991 4.96043L10.9031 4.54673L10.6338 4.60353" fill="white"/>
<path d="M11.0946 4.96266L10.6225 4.701L10.7746 4.5257" fill="white"/>
<path d="M10.4184 4.95733L10.8842 4.70792L10.6952 4.5257" fill="white"/>
<path d="M10.424 4.95783L10.5716 4.54569L10.8682 4.61184" fill="white"/>
<path d="M10.751 2.44873L10.5686 2.85913L10.847 2.93113" fill="white"/>
<path d="M10.7509 2.44873L10.9333 2.85913L10.6549 2.93113" fill="white"/>
<path d="M11.2824 2.73501L10.715 2.75968L10.7643 2.96472" fill="white"/>
<path d="M11.2677 2.74082L10.8752 3.00138L10.6575 2.84637" fill="white"/>
<path d="M10.2343 2.74082L10.6268 3.00138L10.8446 2.84637" fill="white"/>
<path d="M10.2195 2.73501L10.787 2.75968L10.7377 2.96472" fill="white"/>
<path d="M11.0991 3.2324L10.9031 2.8187L10.6338 2.8755" fill="white"/>
<path d="M11.0946 3.23463L10.6225 2.97297L10.7746 2.79767" fill="white"/>
<path d="M10.4184 3.2293L10.8842 2.97989L10.6952 2.79767" fill="white"/>
<path d="M10.424 3.2298L10.5716 2.81766L10.8682 2.88382" fill="white"/>
</g>
<defs>
<clipPath id="clip0_0_1346">
<rect width="32" height="18" fill="white"/>
</clipPath>
</defs>
</svg>
