<svg width="240" height="57" viewBox="0 0 240 57" fill="none" xmlns="http://www.w3.org/2000/svg">
<path d="M14.4463 33.8418L11.4854 32.3313L11.4543 20.5216C11.554 19.6647 11.6828 18.5167 11.7348 18.0498C12.2085 15.6109 13.8853 13.3717 14.6645 12.5569C17.482 9.34904 21.9888 6.55133 23.8901 5.55346L27.6613 3.05419C29.282 1.62604 29.9365 0.756335 30.0612 0.5V4.64713L28.9703 5.38867C26.851 6.83879 24.2017 8.483 23.142 9.12384C20.7235 10.3982 18.8513 11.9435 18.2176 12.5569C15.2255 15.0397 14.4567 18.9012 14.4463 20.5216V33.8418Z" fill="#009688" stroke="#009688" stroke-linejoin="round"/>
<path d="M45.6759 33.8693L48.6368 32.3588L48.668 20.5491C48.5682 19.6922 48.4394 18.5441 48.3875 18.0772C47.9137 15.6384 46.2369 13.3991 45.4577 12.5844C42.6402 9.37652 38.1334 6.5788 36.2322 5.58092L32.4609 3.08166C30.8402 1.65351 30.1857 0.756335 30.061 0.5V4.6746L31.1519 5.41614C33.2713 6.86626 35.9205 8.51047 36.9802 9.15131C39.3988 10.4257 41.2709 11.971 41.9046 12.5844C44.8967 15.0672 45.6655 18.9286 45.6759 20.5491V33.8693Z" fill="#009688"/>
<path d="M48.6368 32.3588L49.1368 32.3601L49.136 32.6654L48.864 32.8042L48.6368 32.3588ZM45.6759 33.8693L45.9031 34.3147L45.1759 34.6857V33.8693H45.6759ZM45.6759 20.5491L46.1759 20.5458V20.5491H45.6759ZM41.9046 12.5844L41.5854 12.9691L41.5706 12.9569L41.5569 12.9436L41.9046 12.5844ZM36.9802 9.15131L36.7471 9.59366L36.7341 9.58679L36.7215 9.57916L36.9802 9.15131ZM31.1519 5.41614L31.433 5.00263L31.4342 5.00348L31.1519 5.41614ZM30.061 4.6746L29.7799 5.0881L29.561 4.93929V4.6746H30.061ZM30.061 0.5H29.561C29.561 0.267086 29.7219 0.0650206 29.9488 0.0127525C30.1758 -0.0395156 30.4088 0.0718589 30.5107 0.281315L30.061 0.5ZM32.4609 3.08166L32.1847 3.49844L32.1561 3.47948L32.1304 3.45679L32.4609 3.08166ZM36.2322 5.58092L35.9998 6.02365L35.9772 6.01179L35.956 5.99771L36.2322 5.58092ZM45.4577 12.5844L45.0964 12.9299L45.089 12.9223L45.0821 12.9143L45.4577 12.5844ZM48.3875 18.0772L48.8783 17.9819L48.8822 18.0018L48.8844 18.022L48.3875 18.0772ZM48.668 20.5491L49.1646 20.4912L49.168 20.5207L49.168 20.5504L48.668 20.5491ZM48.864 32.8042L45.9031 34.3147L45.4487 33.4239L48.4096 31.9134L48.864 32.8042ZM45.1759 33.8693V20.5491H46.1759V33.8693H45.1759ZM45.1759 20.5523C45.1661 19.0193 44.4245 15.325 41.5854 12.9691L42.2239 12.1996C45.369 14.8093 46.1649 18.838 46.1759 20.5458L45.1759 20.5523ZM41.5569 12.9436C40.9547 12.3608 39.1207 10.8443 36.7471 9.59366L37.2133 8.70896C39.6769 10.007 41.5871 11.5812 42.2524 12.2251L41.5569 12.9436ZM36.7215 9.57916C35.6579 8.936 32.9998 7.28637 30.8696 5.82879L31.4342 5.00348C33.5427 6.44614 36.1831 8.08495 37.2389 8.72346L36.7215 9.57916ZM30.8708 5.82964L29.7799 5.0881L30.3421 4.26109L31.433 5.00263L30.8708 5.82964ZM29.561 4.6746V0.5H30.561V4.6746H29.561ZM30.5107 0.281315C30.5424 0.34663 30.7001 0.593749 31.0757 1.02151C31.4414 1.43801 31.9946 2.00434 32.7915 2.70652L32.1304 3.45679C31.3065 2.73082 30.7222 2.1345 30.3242 1.68129C29.9362 1.23934 29.7043 0.909705 29.6114 0.718685L30.5107 0.281315ZM32.7371 2.66487L36.5084 5.16414L35.956 5.99771L32.1847 3.49844L32.7371 2.66487ZM36.4646 5.1382C38.3884 6.14794 42.9571 8.97967 45.8334 12.2544L45.0821 12.9143C42.3233 9.77337 37.8784 7.00965 35.9998 6.02365L36.4646 5.1382ZM45.8191 12.2388C46.6329 13.0898 48.3792 15.4123 48.8783 17.9819L47.8966 18.1726C47.4483 15.8645 45.8409 13.7085 45.0964 12.9299L45.8191 12.2388ZM48.8844 18.022C48.9363 18.4886 49.065 19.6356 49.1646 20.4912L48.1713 20.6069C48.0714 19.7487 47.9425 18.5997 47.8905 18.1325L48.8844 18.022ZM49.168 20.5504L49.1368 32.3601L48.1368 32.3574L48.168 20.5477L49.168 20.5504Z" fill="#009688"/>
<path d="M30 53L0.202815 36.2037C-0.0215898 36.2037 -0.0153564 36.515 0.015811 36.6706L1.0755 41.4769C1.22511 42.0701 1.69885 42.6579 1.91702 42.8776L30 56.5V53Z" fill="#009688"/>
<path d="M30 52.9999L60.013 36.1763C60.2374 36.1763 60.2312 36.4875 60.2 36.6432L59.1403 41.4494C58.9907 42.0427 58.517 42.6304 58.2988 42.8501L30 56.4999V52.9999Z" fill="#009688"/>
<path d="M30 48C20.8742 39.8925 12.9711 35.9566 10.1453 34.9404L4.22346 36.2862L30.0301 51L30 48Z" fill="#FF6600"/>
<path d="M30 48C39.1258 39.8925 47.0891 35.9841 49.915 34.9679L55.8368 36.3137L30 51V49.5V48Z" fill="#FF6600"/>
<path d="M31.9623 31.1777H28.3157V31.2876H28.0975V31.9742H28.5027C28.4403 32.4777 28.272 33.6495 28.0975 34.3087C27.923 34.9678 27.7547 37.0185 27.6923 37.9615L27.5988 44.141L30.1234 46.1733L32.6168 44.141V39.0875C32.6168 37.0222 32.3051 35.2059 32.1493 34.5559L31.7752 31.9742H32.1493V31.2876H31.9623V31.1777Z" fill="#FF6600"/>
<path d="M26 26.9808L30 21.5V26.1731C29.7554 26.2308 29.1927 26.4904 29.1927 27.0096C29.1927 27.5865 29.7554 27.75 30 27.875V30.5H28.5321L26 26.9808Z" fill="#FF6600"/>
<path d="M34.3661 27.4172L31 22.5L31 26C31.2059 26.0518 32 26.3673 32 27C32 27.4933 31.2059 27.8879 31 28L31 30.5H32L34.3661 27.4172Z" stroke="#FF6600" stroke-width="0.5"/>
<path d="M81.1621 35.2451H75.3291L74.2334 38.5H70.7744L76.4248 22.666H80.1631L85.7705 38.5H82.1826L81.1621 35.2451ZM80.2383 32.5166L78.2617 26.2861L76.2207 32.5166H80.2383ZM87.79 22.666H91.0986V35.6533H98.9404V38.5H87.79V22.666ZM110.005 38.5H106.922V22.666H111.734L114.613 35.1162L117.471 22.666H122.229V38.5H119.146V27.79C119.146 27.4821 119.15 27.0524 119.157 26.501C119.164 25.9424 119.168 25.5127 119.168 25.2119L116.171 38.5H112.959L109.983 25.2119C109.983 25.5127 109.987 25.9424 109.994 26.501C110.001 27.0524 110.005 27.4821 110.005 27.79V38.5ZM134.669 32.3984V22.666H138.031V32.3984C138.031 34.0814 137.77 35.3919 137.247 36.3301C136.273 38.0488 134.415 38.9082 131.672 38.9082C128.929 38.9082 127.067 38.0488 126.086 36.3301C125.563 35.3919 125.302 34.0814 125.302 32.3984V22.666H128.664V32.3984C128.664 33.487 128.793 34.2819 129.051 34.7832C129.452 35.6712 130.326 36.1152 131.672 36.1152C133.011 36.1152 133.881 35.6712 134.282 34.7832C134.54 34.2819 134.669 33.487 134.669 32.3984ZM150.471 35.2451H144.638L143.542 38.5H140.083L145.733 22.666H149.472L155.079 38.5H151.491L150.471 35.2451ZM149.547 32.5166L147.57 26.2861L145.529 32.5166H149.547ZM160.128 38.5H157.045V22.666H161.857L164.736 35.1162L167.594 22.666H172.353V38.5H169.27V27.79C169.27 27.4821 169.273 27.0524 169.28 26.501C169.287 25.9424 169.291 25.5127 169.291 25.2119L166.294 38.5H163.082L160.106 25.2119C160.106 25.5127 160.11 25.9424 160.117 26.501C160.124 27.0524 160.128 27.4821 160.128 27.79V38.5ZM184.695 35.2451H178.862L177.767 38.5H174.308L179.958 22.666H183.696L189.304 38.5H185.716L184.695 35.2451ZM183.771 32.5166L181.795 26.2861L179.754 32.5166H183.771ZM191.323 22.666H194.632V35.6533H202.474V38.5H191.323V22.666ZM214.043 35.2451H208.21L207.114 38.5H203.655L209.306 22.666H213.044L218.651 38.5H215.063L214.043 35.2451ZM213.119 32.5166L211.143 26.2861L209.102 32.5166H213.119ZM230.543 22.666V25.4697H225.806V38.5H222.476V25.4697H217.717V22.666H230.543Z" fill="#009688"/>
</svg>
